<?xml version="1.0" encoding="UTF-8"?>
<svg xmlns="http://www.w3.org/2000/svg" xmlns:xlink="http://www.w3.org/1999/xlink" width="300px" height="200px" viewBox="0 0 300 200" version="1.1">
<defs>
<clipPath id="clip1">
  <path d="M 23 6 L 109.320312 6 L 109.320312 134.617188 L 23 134.617188 Z M 23 6 "/>
</clipPath>
<clipPath id="clip2">
  <path d="M 64.519531 6.371094 C 64.519531 6.371094 43.566406 4.492188 32.03125 53.859375 C 31.789062 54.882812 31.550781 55.917969 31.308594 56.941406 C 29.816406 63.070312 22.910156 93.839844 23.421875 134.328125 L 35.070312 134.328125 C 34.371094 123.664062 34.308594 112.441406 34.988281 101.097656 C 35.617188 90.519531 36.847656 80.722656 38.550781 71.949219 C 41.457031 96.84375 46.804688 118.660156 53.882812 134.300781 C 53.179688 123.648438 53.117188 112.425781 53.796875 101.097656 C 54.433594 90.519531 55.664062 80.722656 57.367188 71.949219 C 60.273438 96.84375 65.621094 118.660156 72.691406 134.300781 C 71.996094 123.648438 71.929688 112.425781 72.613281 101.097656 C 73.242188 90.519531 74.472656 80.722656 76.175781 71.949219 C 79.011719 96.242188 84.175781 117.609375 91.003906 133.15625 C 85.84375 63.265625 109.039062 6.175781 109.039062 6.175781 Z M 64.519531 6.371094 "/>
</clipPath>
<linearGradient id="linear0" gradientUnits="userSpaceOnUse" x1="0" y1="0" x2="1.013098" y2="0" gradientTransform="matrix(0,-128.148846,42.35428,0,66.216737,134.325769)">
<stop offset="0" style="stop-color:rgb(100%,87.058824%,0%);stop-opacity:1;"/>
<stop offset="0.00390625" style="stop-color:rgb(100%,86.27451%,2.352941%);stop-opacity:1;"/>
<stop offset="0.0078125" style="stop-color:rgb(100%,85.490196%,5.490196%);stop-opacity:1;"/>
<stop offset="0.0117188" style="stop-color:rgb(100%,85.098039%,8.235294%);stop-opacity:1;"/>
<stop offset="0.015625" style="stop-color:rgb(100%,84.313725%,10.196078%);stop-opacity:1;"/>
<stop offset="0.0195312" style="stop-color:rgb(100%,83.529412%,11.372549%);stop-opacity:1;"/>
<stop offset="0.0234375" style="stop-color:rgb(100%,83.137255%,13.333333%);stop-opacity:1;"/>
<stop offset="0.0273438" style="stop-color:rgb(100%,82.745098%,14.901961%);stop-opacity:1;"/>
<stop offset="0.03125" style="stop-color:rgb(100%,81.960784%,16.078431%);stop-opacity:1;"/>
<stop offset="0.0351562" style="stop-color:rgb(100%,81.568627%,17.647059%);stop-opacity:1;"/>
<stop offset="0.0390625" style="stop-color:rgb(100%,80.784314%,18.823529%);stop-opacity:1;"/>
<stop offset="0.0429688" style="stop-color:rgb(100%,80%,19.607843%);stop-opacity:1;"/>
<stop offset="0.046875" style="stop-color:rgb(100%,79.607843%,20%);stop-opacity:1;"/>
<stop offset="0.0507812" style="stop-color:rgb(100%,79.215686%,21.176471%);stop-opacity:1;"/>
<stop offset="0.0546875" style="stop-color:rgb(100%,78.039216%,21.960784%);stop-opacity:1;"/>
<stop offset="0.0585938" style="stop-color:rgb(100%,77.647059%,23.137255%);stop-opacity:1;"/>
<stop offset="0.0625" style="stop-color:rgb(100%,77.254902%,23.921569%);stop-opacity:1;"/>
<stop offset="0.0664062" style="stop-color:rgb(99.607843%,76.470588%,24.705882%);stop-opacity:1;"/>
<stop offset="0.0703125" style="stop-color:rgb(99.607843%,76.078431%,25.490196%);stop-opacity:1;"/>
<stop offset="0.0742188" style="stop-color:rgb(99.607843%,75.294118%,25.882353%);stop-opacity:1;"/>
<stop offset="0.078125" style="stop-color:rgb(99.607843%,74.509804%,26.666667%);stop-opacity:1;"/>
<stop offset="0.0820312" style="stop-color:rgb(99.215686%,74.117647%,27.45098%);stop-opacity:1;"/>
<stop offset="0.0859375" style="stop-color:rgb(99.215686%,73.333333%,28.235294%);stop-opacity:1;"/>
<stop offset="0.0898438" style="stop-color:rgb(99.215686%,72.54902%,29.019608%);stop-opacity:1;"/>
<stop offset="0.09375" style="stop-color:rgb(99.215686%,72.156863%,29.803922%);stop-opacity:1;"/>
<stop offset="0.0976562" style="stop-color:rgb(98.823529%,71.372549%,30.196078%);stop-opacity:1;"/>
<stop offset="0.101562" style="stop-color:rgb(98.823529%,70.980392%,30.588235%);stop-opacity:1;"/>
<stop offset="0.105469" style="stop-color:rgb(98.823529%,70.196078%,31.372549%);stop-opacity:1;"/>
<stop offset="0.109375" style="stop-color:rgb(98.431373%,69.411765%,31.764706%);stop-opacity:1;"/>
<stop offset="0.113281" style="stop-color:rgb(98.431373%,69.019608%,32.156863%);stop-opacity:1;"/>
<stop offset="0.117188" style="stop-color:rgb(98.431373%,68.235294%,32.941176%);stop-opacity:1;"/>
<stop offset="0.121094" style="stop-color:rgb(98.431373%,67.843137%,33.333333%);stop-opacity:1;"/>
<stop offset="0.125" style="stop-color:rgb(98.039216%,67.058824%,34.117647%);stop-opacity:1;"/>
<stop offset="0.128906" style="stop-color:rgb(98.039216%,66.27451%,34.117647%);stop-opacity:1;"/>
<stop offset="0.132812" style="stop-color:rgb(98.039216%,65.882353%,34.901961%);stop-opacity:1;"/>
<stop offset="0.136719" style="stop-color:rgb(98.039216%,65.490196%,35.294118%);stop-opacity:1;"/>
<stop offset="0.140625" style="stop-color:rgb(97.647059%,64.705882%,35.686275%);stop-opacity:1;"/>
<stop offset="0.144531" style="stop-color:rgb(97.647059%,63.921569%,36.078431%);stop-opacity:1;"/>
<stop offset="0.148438" style="stop-color:rgb(97.647059%,63.529412%,36.470588%);stop-opacity:1;"/>
<stop offset="0.152344" style="stop-color:rgb(97.647059%,62.745098%,37.254902%);stop-opacity:1;"/>
<stop offset="0.15625" style="stop-color:rgb(97.254902%,62.352941%,37.254902%);stop-opacity:1;"/>
<stop offset="0.160156" style="stop-color:rgb(97.254902%,61.568627%,37.647059%);stop-opacity:1;"/>
<stop offset="0.164062" style="stop-color:rgb(97.254902%,60.784314%,38.039216%);stop-opacity:1;"/>
<stop offset="0.167969" style="stop-color:rgb(97.254902%,60.392157%,38.431373%);stop-opacity:1;"/>
<stop offset="0.171875" style="stop-color:rgb(96.862745%,60%,38.431373%);stop-opacity:1;"/>
<stop offset="0.175781" style="stop-color:rgb(96.862745%,59.215686%,38.823529%);stop-opacity:1;"/>
<stop offset="0.179688" style="stop-color:rgb(96.862745%,58.431373%,39.215686%);stop-opacity:1;"/>
<stop offset="0.183594" style="stop-color:rgb(96.862745%,58.039216%,39.215686%);stop-opacity:1;"/>
<stop offset="0.1875" style="stop-color:rgb(96.470588%,57.254902%,39.607843%);stop-opacity:1;"/>
<stop offset="0.191406" style="stop-color:rgb(96.470588%,56.862745%,40%);stop-opacity:1;"/>
<stop offset="0.195312" style="stop-color:rgb(96.470588%,56.078431%,40%);stop-opacity:1;"/>
<stop offset="0.199219" style="stop-color:rgb(96.470588%,55.686275%,40.392157%);stop-opacity:1;"/>
<stop offset="0.203125" style="stop-color:rgb(96.470588%,54.901961%,40.784314%);stop-opacity:1;"/>
<stop offset="0.207031" style="stop-color:rgb(96.470588%,54.509804%,41.176471%);stop-opacity:1;"/>
<stop offset="0.210938" style="stop-color:rgb(96.078431%,54.117647%,41.176471%);stop-opacity:1;"/>
<stop offset="0.214844" style="stop-color:rgb(96.078431%,52.941176%,41.568627%);stop-opacity:1;"/>
<stop offset="0.21875" style="stop-color:rgb(96.078431%,52.54902%,41.568627%);stop-opacity:1;"/>
<stop offset="0.222656" style="stop-color:rgb(96.078431%,52.156863%,41.960784%);stop-opacity:1;"/>
<stop offset="0.226562" style="stop-color:rgb(96.078431%,51.372549%,41.960784%);stop-opacity:1;"/>
<stop offset="0.230469" style="stop-color:rgb(95.686275%,50.980392%,42.352941%);stop-opacity:1;"/>
<stop offset="0.234375" style="stop-color:rgb(95.686275%,50.196078%,42.352941%);stop-opacity:1;"/>
<stop offset="0.238281" style="stop-color:rgb(95.686275%,49.411765%,42.352941%);stop-opacity:1;"/>
<stop offset="0.242188" style="stop-color:rgb(95.686275%,49.019608%,42.745098%);stop-opacity:1;"/>
<stop offset="0.246094" style="stop-color:rgb(94.901961%,48.627451%,43.137255%);stop-opacity:1;"/>
<stop offset="0.25" style="stop-color:rgb(94.901961%,47.843137%,43.137255%);stop-opacity:1;"/>
<stop offset="0.253906" style="stop-color:rgb(93.72549%,47.45098%,43.137255%);stop-opacity:1;"/>
<stop offset="0.257812" style="stop-color:rgb(92.941176%,47.45098%,43.137255%);stop-opacity:1;"/>
<stop offset="0.261719" style="stop-color:rgb(92.54902%,47.45098%,43.137255%);stop-opacity:1;"/>
<stop offset="0.265625" style="stop-color:rgb(91.764706%,47.058824%,43.137255%);stop-opacity:1;"/>
<stop offset="0.269531" style="stop-color:rgb(90.980392%,47.058824%,43.137255%);stop-opacity:1;"/>
<stop offset="0.273438" style="stop-color:rgb(90.588235%,47.058824%,43.529412%);stop-opacity:1;"/>
<stop offset="0.277344" style="stop-color:rgb(89.803922%,46.666667%,43.529412%);stop-opacity:1;"/>
<stop offset="0.28125" style="stop-color:rgb(89.411765%,46.666667%,43.529412%);stop-opacity:1;"/>
<stop offset="0.285156" style="stop-color:rgb(88.627451%,46.27451%,43.529412%);stop-opacity:1;"/>
<stop offset="0.289063" style="stop-color:rgb(88.235294%,46.27451%,43.529412%);stop-opacity:1;"/>
<stop offset="0.292969" style="stop-color:rgb(87.843137%,46.27451%,43.921569%);stop-opacity:1;"/>
<stop offset="0.296875" style="stop-color:rgb(87.058824%,45.882353%,43.529412%);stop-opacity:1;"/>
<stop offset="0.300781" style="stop-color:rgb(86.666667%,45.882353%,43.921569%);stop-opacity:1;"/>
<stop offset="0.304688" style="stop-color:rgb(86.27451%,45.882353%,43.921569%);stop-opacity:1;"/>
<stop offset="0.308594" style="stop-color:rgb(85.882353%,45.490196%,43.921569%);stop-opacity:1;"/>
<stop offset="0.3125" style="stop-color:rgb(85.098039%,45.490196%,44.313725%);stop-opacity:1;"/>
<stop offset="0.316406" style="stop-color:rgb(84.705882%,45.490196%,44.313725%);stop-opacity:1;"/>
<stop offset="0.320312" style="stop-color:rgb(84.313725%,45.098039%,44.313725%);stop-opacity:1;"/>
<stop offset="0.324219" style="stop-color:rgb(83.529412%,45.098039%,44.313725%);stop-opacity:1;"/>
<stop offset="0.328125" style="stop-color:rgb(83.137255%,45.098039%,44.313725%);stop-opacity:1;"/>
<stop offset="0.332031" style="stop-color:rgb(82.745098%,45.098039%,44.705882%);stop-opacity:1;"/>
<stop offset="0.335937" style="stop-color:rgb(82.352941%,44.705882%,44.705882%);stop-opacity:1;"/>
<stop offset="0.339844" style="stop-color:rgb(81.568627%,44.705882%,44.705882%);stop-opacity:1;"/>
<stop offset="0.34375" style="stop-color:rgb(81.176471%,44.705882%,45.098039%);stop-opacity:1;"/>
<stop offset="0.347656" style="stop-color:rgb(80.784314%,44.313725%,45.098039%);stop-opacity:1;"/>
<stop offset="0.351562" style="stop-color:rgb(80.392157%,44.313725%,45.098039%);stop-opacity:1;"/>
<stop offset="0.355469" style="stop-color:rgb(80%,44.313725%,45.098039%);stop-opacity:1;"/>
<stop offset="0.359375" style="stop-color:rgb(79.215686%,44.313725%,45.490196%);stop-opacity:1;"/>
<stop offset="0.363281" style="stop-color:rgb(78.823529%,43.921569%,45.490196%);stop-opacity:1;"/>
<stop offset="0.367188" style="stop-color:rgb(78.431373%,43.921569%,45.490196%);stop-opacity:1;"/>
<stop offset="0.371094" style="stop-color:rgb(77.647059%,43.529412%,45.490196%);stop-opacity:1;"/>
<stop offset="0.375" style="stop-color:rgb(77.647059%,43.529412%,45.490196%);stop-opacity:1;"/>
<stop offset="0.378906" style="stop-color:rgb(76.862745%,43.529412%,45.882353%);stop-opacity:1;"/>
<stop offset="0.382812" style="stop-color:rgb(76.470588%,43.529412%,45.882353%);stop-opacity:1;"/>
<stop offset="0.386719" style="stop-color:rgb(76.078431%,43.529412%,45.882353%);stop-opacity:1;"/>
<stop offset="0.390625" style="stop-color:rgb(75.686275%,43.137255%,45.882353%);stop-opacity:1;"/>
<stop offset="0.394531" style="stop-color:rgb(74.901961%,43.137255%,45.882353%);stop-opacity:1;"/>
<stop offset="0.398438" style="stop-color:rgb(74.901961%,43.137255%,46.27451%);stop-opacity:1;"/>
<stop offset="0.402344" style="stop-color:rgb(74.117647%,43.137255%,46.27451%);stop-opacity:1;"/>
<stop offset="0.40625" style="stop-color:rgb(73.72549%,42.745098%,46.27451%);stop-opacity:1;"/>
<stop offset="0.410156" style="stop-color:rgb(73.333333%,42.745098%,46.666667%);stop-opacity:1;"/>
<stop offset="0.414063" style="stop-color:rgb(72.54902%,42.352941%,46.27451%);stop-opacity:1;"/>
<stop offset="0.417969" style="stop-color:rgb(72.156863%,42.352941%,46.666667%);stop-opacity:1;"/>
<stop offset="0.421875" style="stop-color:rgb(72.156863%,42.352941%,46.666667%);stop-opacity:1;"/>
<stop offset="0.425781" style="stop-color:rgb(71.372549%,42.352941%,46.666667%);stop-opacity:1;"/>
<stop offset="0.429688" style="stop-color:rgb(70.980392%,42.352941%,46.666667%);stop-opacity:1;"/>
<stop offset="0.433594" style="stop-color:rgb(70.588235%,41.960784%,47.058824%);stop-opacity:1;"/>
<stop offset="0.4375" style="stop-color:rgb(69.803922%,41.960784%,47.058824%);stop-opacity:1;"/>
<stop offset="0.441406" style="stop-color:rgb(69.803922%,41.960784%,47.058824%);stop-opacity:1;"/>
<stop offset="0.445312" style="stop-color:rgb(69.411765%,41.960784%,47.058824%);stop-opacity:1;"/>
<stop offset="0.449219" style="stop-color:rgb(68.627451%,41.568627%,47.058824%);stop-opacity:1;"/>
<stop offset="0.453125" style="stop-color:rgb(68.235294%,41.568627%,47.058824%);stop-opacity:1;"/>
<stop offset="0.457031" style="stop-color:rgb(67.843137%,41.176471%,47.058824%);stop-opacity:1;"/>
<stop offset="0.460937" style="stop-color:rgb(67.058824%,41.176471%,47.45098%);stop-opacity:1;"/>
<stop offset="0.464844" style="stop-color:rgb(67.058824%,41.176471%,47.45098%);stop-opacity:1;"/>
<stop offset="0.46875" style="stop-color:rgb(66.666667%,41.176471%,47.45098%);stop-opacity:1;"/>
<stop offset="0.472656" style="stop-color:rgb(65.882353%,40.784314%,47.45098%);stop-opacity:1;"/>
<stop offset="0.476562" style="stop-color:rgb(65.490196%,40.784314%,47.843137%);stop-opacity:1;"/>
<stop offset="0.480469" style="stop-color:rgb(65.098039%,40.784314%,47.843137%);stop-opacity:1;"/>
<stop offset="0.484375" style="stop-color:rgb(64.705882%,40.784314%,47.843137%);stop-opacity:1;"/>
<stop offset="0.488281" style="stop-color:rgb(64.313725%,40.784314%,48.235294%);stop-opacity:1;"/>
<stop offset="0.492188" style="stop-color:rgb(63.529412%,40.392157%,47.843137%);stop-opacity:1;"/>
<stop offset="0.496094" style="stop-color:rgb(63.137255%,40.392157%,48.235294%);stop-opacity:1;"/>
<stop offset="0.5" style="stop-color:rgb(62.745098%,40%,48.235294%);stop-opacity:1;"/>
<stop offset="0.503906" style="stop-color:rgb(62.352941%,40%,48.235294%);stop-opacity:1;"/>
<stop offset="0.507813" style="stop-color:rgb(61.960784%,40%,48.235294%);stop-opacity:1;"/>
<stop offset="0.511719" style="stop-color:rgb(61.568627%,40%,48.235294%);stop-opacity:1;"/>
<stop offset="0.515625" style="stop-color:rgb(60.784314%,39.607843%,48.627451%);stop-opacity:1;"/>
<stop offset="0.519531" style="stop-color:rgb(60.784314%,39.607843%,48.627451%);stop-opacity:1;"/>
<stop offset="0.523438" style="stop-color:rgb(60%,39.607843%,48.627451%);stop-opacity:1;"/>
<stop offset="0.527344" style="stop-color:rgb(59.607843%,39.607843%,48.627451%);stop-opacity:1;"/>
<stop offset="0.53125" style="stop-color:rgb(59.215686%,39.607843%,48.627451%);stop-opacity:1;"/>
<stop offset="0.535156" style="stop-color:rgb(58.823529%,39.215686%,48.627451%);stop-opacity:1;"/>
<stop offset="0.539063" style="stop-color:rgb(58.431373%,39.215686%,49.019608%);stop-opacity:1;"/>
<stop offset="0.542969" style="stop-color:rgb(58.039216%,38.823529%,48.627451%);stop-opacity:1;"/>
<stop offset="0.546875" style="stop-color:rgb(57.647059%,38.823529%,49.019608%);stop-opacity:1;"/>
<stop offset="0.550781" style="stop-color:rgb(56.862745%,38.823529%,49.019608%);stop-opacity:1;"/>
<stop offset="0.554688" style="stop-color:rgb(56.470588%,38.823529%,49.019608%);stop-opacity:1;"/>
<stop offset="0.558594" style="stop-color:rgb(56.470588%,38.823529%,49.019608%);stop-opacity:1;"/>
<stop offset="0.5625" style="stop-color:rgb(55.686275%,38.431373%,49.411765%);stop-opacity:1;"/>
<stop offset="0.566406" style="stop-color:rgb(55.294118%,38.431373%,49.411765%);stop-opacity:1;"/>
<stop offset="0.570313" style="stop-color:rgb(54.901961%,38.431373%,49.411765%);stop-opacity:1;"/>
<stop offset="0.574219" style="stop-color:rgb(54.509804%,38.431373%,49.411765%);stop-opacity:1;"/>
<stop offset="0.578125" style="stop-color:rgb(54.117647%,38.039216%,49.411765%);stop-opacity:1;"/>
<stop offset="0.582031" style="stop-color:rgb(53.72549%,38.039216%,49.411765%);stop-opacity:1;"/>
<stop offset="0.585938" style="stop-color:rgb(52.941176%,38.039216%,49.411765%);stop-opacity:1;"/>
<stop offset="0.589844" style="stop-color:rgb(52.941176%,38.039216%,49.803922%);stop-opacity:1;"/>
<stop offset="0.59375" style="stop-color:rgb(52.156863%,37.647059%,49.803922%);stop-opacity:1;"/>
<stop offset="0.597656" style="stop-color:rgb(51.764706%,37.647059%,49.803922%);stop-opacity:1;"/>
<stop offset="0.601562" style="stop-color:rgb(51.372549%,37.647059%,49.803922%);stop-opacity:1;"/>
<stop offset="0.605469" style="stop-color:rgb(50.980392%,37.647059%,50.196078%);stop-opacity:1;"/>
<stop offset="0.609375" style="stop-color:rgb(50.588235%,37.254902%,49.803922%);stop-opacity:1;"/>
<stop offset="0.613281" style="stop-color:rgb(50.196078%,37.254902%,50.196078%);stop-opacity:1;"/>
<stop offset="0.617188" style="stop-color:rgb(49.803922%,37.254902%,50.196078%);stop-opacity:1;"/>
<stop offset="0.621094" style="stop-color:rgb(49.411765%,37.254902%,50.196078%);stop-opacity:1;"/>
<stop offset="0.625" style="stop-color:rgb(49.019608%,37.254902%,50.196078%);stop-opacity:1;"/>
<stop offset="0.628906" style="stop-color:rgb(48.235294%,36.862745%,50.196078%);stop-opacity:1;"/>
<stop offset="0.632812" style="stop-color:rgb(48.235294%,36.862745%,50.196078%);stop-opacity:1;"/>
<stop offset="0.636719" style="stop-color:rgb(47.843137%,36.862745%,50.196078%);stop-opacity:1;"/>
<stop offset="0.640625" style="stop-color:rgb(47.058824%,36.470588%,50.196078%);stop-opacity:1;"/>
<stop offset="0.644531" style="stop-color:rgb(46.666667%,36.470588%,50.588235%);stop-opacity:1;"/>
<stop offset="0.648438" style="stop-color:rgb(46.666667%,36.470588%,50.588235%);stop-opacity:1;"/>
<stop offset="0.652344" style="stop-color:rgb(45.882353%,36.470588%,50.588235%);stop-opacity:1;"/>
<stop offset="0.65625" style="stop-color:rgb(45.490196%,36.470588%,50.588235%);stop-opacity:1;"/>
<stop offset="0.660156" style="stop-color:rgb(45.490196%,36.078431%,50.588235%);stop-opacity:1;"/>
<stop offset="0.664062" style="stop-color:rgb(44.705882%,36.078431%,50.588235%);stop-opacity:1;"/>
<stop offset="0.667969" style="stop-color:rgb(44.313725%,36.078431%,50.588235%);stop-opacity:1;"/>
<stop offset="0.671875" style="stop-color:rgb(43.921569%,35.686275%,50.588235%);stop-opacity:1;"/>
<stop offset="0.675781" style="stop-color:rgb(43.529412%,35.686275%,50.588235%);stop-opacity:1;"/>
<stop offset="0.679687" style="stop-color:rgb(43.137255%,35.686275%,50.980392%);stop-opacity:1;"/>
<stop offset="0.683594" style="stop-color:rgb(42.745098%,35.686275%,50.980392%);stop-opacity:1;"/>
<stop offset="0.6875" style="stop-color:rgb(41.960784%,35.686275%,50.980392%);stop-opacity:1;"/>
<stop offset="0.691406" style="stop-color:rgb(41.960784%,35.294118%,50.980392%);stop-opacity:1;"/>
<stop offset="0.695312" style="stop-color:rgb(41.568627%,35.294118%,50.980392%);stop-opacity:1;"/>
<stop offset="0.699219" style="stop-color:rgb(40.784314%,35.294118%,50.980392%);stop-opacity:1;"/>
<stop offset="0.703125" style="stop-color:rgb(40.392157%,35.294118%,51.372549%);stop-opacity:1;"/>
<stop offset="0.707031" style="stop-color:rgb(40%,34.901961%,51.372549%);stop-opacity:1;"/>
<stop offset="0.710937" style="stop-color:rgb(39.607843%,34.901961%,51.372549%);stop-opacity:1;"/>
<stop offset="0.714844" style="stop-color:rgb(39.215686%,34.901961%,50.980392%);stop-opacity:1;"/>
<stop offset="0.71875" style="stop-color:rgb(38.431373%,34.901961%,51.372549%);stop-opacity:1;"/>
<stop offset="0.722656" style="stop-color:rgb(38.039216%,34.901961%,51.372549%);stop-opacity:1;"/>
<stop offset="0.726562" style="stop-color:rgb(37.647059%,34.509804%,51.372549%);stop-opacity:1;"/>
<stop offset="0.730469" style="stop-color:rgb(37.254902%,34.509804%,51.372549%);stop-opacity:1;"/>
<stop offset="0.734375" style="stop-color:rgb(36.862745%,34.509804%,51.764706%);stop-opacity:1;"/>
<stop offset="0.738281" style="stop-color:rgb(36.470588%,34.117647%,51.372549%);stop-opacity:1;"/>
<stop offset="0.742187" style="stop-color:rgb(36.078431%,34.117647%,51.764706%);stop-opacity:1;"/>
<stop offset="0.746094" style="stop-color:rgb(35.686275%,34.117647%,51.764706%);stop-opacity:1;"/>
<stop offset="0.75" style="stop-color:rgb(35.294118%,34.117647%,51.764706%);stop-opacity:1;"/>
<stop offset="0.753906" style="stop-color:rgb(34.509804%,34.117647%,51.764706%);stop-opacity:1;"/>
<stop offset="0.757813" style="stop-color:rgb(34.117647%,33.72549%,51.764706%);stop-opacity:1;"/>
<stop offset="0.761719" style="stop-color:rgb(33.72549%,33.72549%,51.764706%);stop-opacity:1;"/>
<stop offset="0.765625" style="stop-color:rgb(33.333333%,33.72549%,51.764706%);stop-opacity:1;"/>
<stop offset="0.769531" style="stop-color:rgb(32.54902%,33.333333%,51.764706%);stop-opacity:1;"/>
<stop offset="0.773438" style="stop-color:rgb(32.54902%,33.333333%,51.764706%);stop-opacity:1;"/>
<stop offset="0.777344" style="stop-color:rgb(31.764706%,33.333333%,51.764706%);stop-opacity:1;"/>
<stop offset="0.78125" style="stop-color:rgb(31.372549%,33.333333%,51.764706%);stop-opacity:1;"/>
<stop offset="0.785156" style="stop-color:rgb(30.980392%,33.333333%,52.156863%);stop-opacity:1;"/>
<stop offset="0.789063" style="stop-color:rgb(30.196078%,32.941176%,52.156863%);stop-opacity:1;"/>
<stop offset="0.792969" style="stop-color:rgb(29.803922%,32.941176%,51.764706%);stop-opacity:1;"/>
<stop offset="0.796875" style="stop-color:rgb(29.411765%,32.941176%,52.156863%);stop-opacity:1;"/>
<stop offset="0.800781" style="stop-color:rgb(28.627451%,32.54902%,52.156863%);stop-opacity:1;"/>
<stop offset="0.804688" style="stop-color:rgb(28.627451%,32.54902%,52.156863%);stop-opacity:1;"/>
<stop offset="0.808594" style="stop-color:rgb(27.843137%,32.54902%,52.156863%);stop-opacity:1;"/>
<stop offset="0.8125" style="stop-color:rgb(27.45098%,32.54902%,52.156863%);stop-opacity:1;"/>
<stop offset="0.816406" style="stop-color:rgb(27.058824%,32.54902%,52.156863%);stop-opacity:1;"/>
<stop offset="0.820313" style="stop-color:rgb(26.27451%,32.54902%,52.156863%);stop-opacity:1;"/>
<stop offset="0.824219" style="stop-color:rgb(25.882353%,32.156863%,52.156863%);stop-opacity:1;"/>
<stop offset="0.828125" style="stop-color:rgb(25.490196%,32.156863%,52.156863%);stop-opacity:1;"/>
<stop offset="0.832031" style="stop-color:rgb(24.705882%,32.156863%,52.156863%);stop-opacity:1;"/>
<stop offset="0.835938" style="stop-color:rgb(24.313725%,32.156863%,52.156863%);stop-opacity:1;"/>
<stop offset="0.839844" style="stop-color:rgb(23.921569%,31.764706%,52.54902%);stop-opacity:1;"/>
<stop offset="0.84375" style="stop-color:rgb(23.137255%,31.764706%,52.156863%);stop-opacity:1;"/>
<stop offset="0.847656" style="stop-color:rgb(22.352941%,31.764706%,52.54902%);stop-opacity:1;"/>
<stop offset="0.851562" style="stop-color:rgb(21.960784%,31.764706%,52.54902%);stop-opacity:1;"/>
<stop offset="0.855469" style="stop-color:rgb(21.176471%,31.372549%,52.156863%);stop-opacity:1;"/>
<stop offset="0.859375" style="stop-color:rgb(20.784314%,31.372549%,52.54902%);stop-opacity:1;"/>
<stop offset="0.863281" style="stop-color:rgb(20.392157%,31.372549%,52.54902%);stop-opacity:1;"/>
<stop offset="0.867188" style="stop-color:rgb(19.215686%,31.372549%,52.54902%);stop-opacity:1;"/>
<stop offset="0.871094" style="stop-color:rgb(18.823529%,31.372549%,52.54902%);stop-opacity:1;"/>
<stop offset="0.875" style="stop-color:rgb(18.431373%,30.980392%,52.941176%);stop-opacity:1;"/>
<stop offset="0.878906" style="stop-color:rgb(17.647059%,30.980392%,52.54902%);stop-opacity:1;"/>
<stop offset="0.882812" style="stop-color:rgb(16.862745%,30.980392%,52.54902%);stop-opacity:1;"/>
<stop offset="0.886719" style="stop-color:rgb(16.470588%,30.588235%,52.54902%);stop-opacity:1;"/>
<stop offset="0.890625" style="stop-color:rgb(15.294118%,30.588235%,52.941176%);stop-opacity:1;"/>
<stop offset="0.894531" style="stop-color:rgb(14.901961%,30.588235%,52.941176%);stop-opacity:1;"/>
<stop offset="0.898438" style="stop-color:rgb(14.117647%,30.588235%,52.54902%);stop-opacity:1;"/>
<stop offset="0.902344" style="stop-color:rgb(12.941176%,30.588235%,52.941176%);stop-opacity:1;"/>
<stop offset="0.90625" style="stop-color:rgb(12.54902%,30.588235%,52.941176%);stop-opacity:1;"/>
<stop offset="0.910156" style="stop-color:rgb(10.980392%,30.196078%,52.941176%);stop-opacity:1;"/>
<stop offset="0.914062" style="stop-color:rgb(10.588235%,30.196078%,52.941176%);stop-opacity:1;"/>
<stop offset="0.917969" style="stop-color:rgb(9.803922%,30.196078%,52.941176%);stop-opacity:1;"/>
<stop offset="0.921875" style="stop-color:rgb(8.235294%,30.196078%,52.941176%);stop-opacity:1;"/>
<stop offset="0.925781" style="stop-color:rgb(7.058824%,30.196078%,52.941176%);stop-opacity:1;"/>
<stop offset="0.929687" style="stop-color:rgb(5.882353%,29.803922%,52.941176%);stop-opacity:1;"/>
<stop offset="0.933594" style="stop-color:rgb(3.529412%,29.803922%,52.941176%);stop-opacity:1;"/>
<stop offset="0.9375" style="stop-color:rgb(1.960784%,29.803922%,52.941176%);stop-opacity:1;"/>
<stop offset="0.941406" style="stop-color:rgb(0.392157%,29.411765%,52.941176%);stop-opacity:1;"/>
<stop offset="0.945312" style="stop-color:rgb(0%,29.411765%,53.333333%);stop-opacity:1;"/>
<stop offset="0.949219" style="stop-color:rgb(0%,29.411765%,53.333333%);stop-opacity:1;"/>
<stop offset="0.953125" style="stop-color:rgb(0%,29.411765%,52.941176%);stop-opacity:1;"/>
<stop offset="0.957031" style="stop-color:rgb(0%,29.411765%,53.333333%);stop-opacity:1;"/>
<stop offset="0.960937" style="stop-color:rgb(0%,29.411765%,53.333333%);stop-opacity:1;"/>
<stop offset="0.964844" style="stop-color:rgb(0%,29.019608%,53.333333%);stop-opacity:1;"/>
<stop offset="0.96875" style="stop-color:rgb(0%,29.019608%,53.333333%);stop-opacity:1;"/>
<stop offset="0.972656" style="stop-color:rgb(0%,29.019608%,53.333333%);stop-opacity:1;"/>
<stop offset="0.976562" style="stop-color:rgb(0%,29.019608%,53.333333%);stop-opacity:1;"/>
<stop offset="0.980469" style="stop-color:rgb(0%,29.019608%,53.72549%);stop-opacity:1;"/>
<stop offset="0.984375" style="stop-color:rgb(0%,28.627451%,53.72549%);stop-opacity:1;"/>
<stop offset="1" style="stop-color:rgb(0%,28.627451%,53.72549%);stop-opacity:1;"/>
</linearGradient>
</defs>
<g id="surface1">
<g clip-path="url(#clip1)" clip-rule="nonzero">
<g clip-path="url(#clip2)" clip-rule="nonzero">
<path style=" stroke:none;fill-rule:nonzero;fill:url(#linear0);" d="M 22.910156 134.328125 L 109.039062 134.328125 L 109.039062 4.492188 L 22.910156 4.492188 Z M 22.910156 134.328125 "/>
</g>
</g>
<path style=" stroke:none;fill-rule:nonzero;fill:rgb(0%,28.627451%,53.72549%);fill-opacity:1;" d="M 116.351562 4.972656 L 120.117188 4.972656 C 122.328125 4.972656 124.113281 10.382812 124.113281 17.066406 L 124.113281 133.59375 L 118.355469 133.59375 C 117.253906 133.59375 116.351562 130.890625 116.351562 127.554688 Z M 116.351562 4.972656 "/>
<path style=" stroke:none;fill-rule:nonzero;fill:rgb(0%,28.627451%,53.72549%);fill-opacity:1;" d="M 129.5625 18.601562 C 129.5625 11.296875 131.519531 5.003906 133.863281 5.003906 C 136.261719 5.003906 138.222656 11.296875 138.222656 18.601562 C 138.222656 25.902344 136.261719 32.015625 133.863281 32.015625 C 131.519531 32.015625 129.5625 25.902344 129.5625 18.601562 "/>
<path style=" stroke:none;fill-rule:nonzero;fill:rgb(0%,28.627451%,53.72549%);fill-opacity:1;" d="M 130.007812 39.84375 L 133.773438 39.84375 C 135.980469 39.84375 137.769531 45.253906 137.769531 51.9375 L 137.769531 133.59375 L 132.007812 133.59375 C 130.90625 133.59375 130.007812 130.890625 130.007812 127.554688 Z M 130.007812 39.84375 "/>
<path style=" stroke:none;fill-rule:nonzero;fill:rgb(0%,28.627451%,53.72549%);fill-opacity:1;" d="M 171.753906 76.035156 L 171.753906 133.59375 L 165.992188 133.59375 C 164.890625 133.59375 163.996094 130.890625 163.996094 127.554688 L 163.996094 79.027344 C 163.996094 66.285156 161.53125 59.71875 158.039062 59.71875 C 154.25 59.71875 151.425781 66.660156 151.425781 82.976562 L 151.425781 133.59375 L 145.664062 133.59375 C 144.558594 133.59375 143.664062 130.890625 143.664062 127.554688 L 143.664062 39.84375 L 147.953125 39.84375 C 149.871094 39.84375 151.425781 44.546875 151.425781 50.34375 C 153.226562 41.902344 156.355469 37.214844 160.386719 37.214844 C 166.765625 37.214844 171.753906 51.097656 171.753906 76.035156 "/>
<path style=" stroke:none;fill-rule:nonzero;fill:rgb(0%,28.627451%,53.72549%);fill-opacity:1;" d="M 198.945312 77.914062 C 197.980469 64.40625 194.734375 58.96875 191.488281 58.96875 C 187.335938 58.96875 184.511719 65.910156 183.605469 77.914062 Z M 192.207031 114.289062 C 194.207031 114.289062 195.945312 112.546875 197.273438 109.78125 C 198.527344 107.152344 200.1875 107.152344 201.496094 109.511719 L 205.203125 116.164062 C 202.371094 128.90625 197.863281 136.222656 192.089844 136.222656 C 181.984375 136.222656 175.609375 114.664062 175.609375 86.71875 C 175.609375 58.789062 182.042969 37.214844 191.488281 37.214844 C 200.390625 37.214844 206.707031 59.164062 206.707031 86.71875 C 206.707031 90.28125 206.582031 93.480469 206.402344 96.664062 L 183.726562 96.664062 C 184.808594 109.03125 188.117188 114.289062 192.207031 114.289062 "/>
<path style=" stroke:none;fill-rule:nonzero;fill:rgb(0%,28.627451%,53.72549%);fill-opacity:1;" d="M 238.527344 51.9375 L 238.527344 133.59375 L 232.765625 133.59375 C 231.660156 133.59375 230.765625 130.890625 230.765625 127.554688 L 230.765625 123.09375 C 228.960938 131.535156 225.835938 136.222656 221.800781 136.222656 C 215.425781 136.222656 210.4375 122.355469 210.4375 97.414062 L 210.4375 39.84375 L 214.199219 39.84375 C 216.40625 39.84375 218.195312 45.253906 218.195312 51.9375 L 218.195312 94.410156 C 218.195312 107.167969 220.660156 113.730469 224.152344 113.730469 C 227.941406 113.730469 230.765625 106.789062 230.765625 90.476562 L 230.765625 39.84375 L 234.527344 39.84375 C 236.738281 39.84375 238.527344 45.253906 238.527344 51.9375 "/>
<path style=" stroke:none;fill-rule:nonzero;fill:rgb(0%,28.627451%,53.72549%);fill-opacity:1;" d="M 268.847656 86.71875 C 268.847656 70.972656 265.296875 60.277344 260.484375 60.277344 C 255.730469 60.277344 252.179688 70.972656 252.179688 86.71875 C 252.179688 102.480469 255.730469 113.160156 260.484375 113.160156 C 265.296875 113.160156 268.847656 102.480469 268.847656 86.71875 M 276.601562 86.71875 C 276.601562 114.664062 269.988281 136.222656 261.929688 136.222656 C 257.535156 136.222656 254.347656 131.160156 252.179688 122.535156 L 252.179688 171.109375 L 246.421875 171.109375 C 245.320312 171.109375 244.421875 168.390625 244.421875 165.054688 L 244.421875 39.84375 L 248.527344 39.84375 C 250.542969 39.84375 252.179688 44.800781 252.179688 50.902344 C 254.347656 42.277344 257.535156 37.214844 261.929688 37.214844 C 269.988281 37.214844 276.601562 58.789062 276.601562 86.71875 "/>
<path style=" stroke:none;fill-rule:nonzero;fill:rgb(0%,28.627451%,53.72549%);fill-opacity:1;" d="M 119.570312 168.796875 C 119.21875 168.015625 118.886719 167.488281 118.429688 167.488281 C 117.695312 167.488281 117.242188 169.320312 117.242188 171.425781 C 117.242188 172.761719 117.347656 173.691406 117.613281 174.746094 L 118.632812 178.109375 C 119.542969 180.90625 120.0625 182.917969 120.0625 187.050781 C 120.0625 191.347656 119.179688 195.027344 117.695312 195.027344 C 117.171875 195.027344 116.636719 194.589844 116.222656 193.570312 L 116.222656 189.484375 C 116.625 190.371094 117.023438 191.0625 117.546875 191.0625 C 118.378906 191.0625 118.726562 189.078125 118.726562 186.808594 C 118.726562 180.738281 115.902344 179.523438 115.902344 171.5 C 115.902344 167.203125 116.652344 163.6875 118.164062 163.6875 C 118.671875 163.6875 119.152344 163.925781 119.582031 164.695312 Z M 119.570312 168.796875 "/>
<path style=" stroke:none;fill-rule:nonzero;fill:rgb(0%,28.627451%,53.72549%);fill-opacity:1;" d="M 124.546875 164.09375 L 124.546875 186.492188 C 124.546875 190.414062 124.933594 191.226562 125.484375 191.226562 C 126.410156 191.226562 126.488281 189.4375 126.503906 186.929688 L 126.503906 164.09375 L 127.839844 164.09375 L 127.839844 185.757812 C 127.839844 189.769531 127.855469 195.027344 125.523438 195.027344 C 123.394531 195.027344 123.210938 190.65625 123.210938 185.15625 L 123.210938 164.09375 Z M 124.546875 164.09375 "/>
<path style=" stroke:none;fill-rule:nonzero;fill:rgb(0%,28.627451%,53.72549%);fill-opacity:1;" d="M 134.160156 172.792969 C 134.160156 169.875 134.035156 167.457031 133.023438 167.53125 L 132.804688 167.53125 L 132.804688 177.613281 C 133.8125 177.824219 134.160156 175.871094 134.160156 172.792969 M 131.46875 164.09375 L 133.074219 164.09375 C 134.050781 164.09375 135.574219 164.257812 135.574219 171.90625 C 135.574219 174.789062 135.296875 179.160156 134.183594 179.761719 L 136.046875 194.621094 L 134.652344 194.621094 L 132.835938 179.6875 L 132.804688 179.6875 L 132.804688 194.621094 L 131.46875 194.621094 Z M 131.46875 164.09375 "/>
<path style=" stroke:none;fill-rule:nonzero;fill:rgb(0%,28.627451%,53.72549%);fill-opacity:1;" d="M 142.671875 164.09375 L 142.671875 167.609375 L 140.382812 167.609375 L 140.382812 177.207031 L 142.441406 177.207031 L 142.441406 180.738281 L 140.382812 180.738281 L 140.382812 194.621094 L 139.046875 194.621094 L 139.046875 164.09375 Z M 142.671875 164.09375 "/>
<path style=" stroke:none;fill-rule:nonzero;fill:rgb(0%,28.627451%,53.72549%);fill-opacity:1;" d="M 154.289062 164.09375 L 154.289062 169.757812 L 152.269531 169.757812 L 152.269531 176.398438 L 154.046875 176.398438 L 154.046875 182.078125 L 152.269531 182.078125 L 152.269531 188.957031 L 154.316406 188.957031 L 154.316406 194.621094 L 150.273438 194.621094 L 150.273438 164.09375 Z M 154.289062 164.09375 "/>
<path style=" stroke:none;fill-rule:nonzero;fill:rgb(0%,28.627451%,53.72549%);fill-opacity:1;" d="M 159.066406 164.09375 L 160.269531 178.757812 C 160.449219 180.5 160.511719 182.242188 160.632812 183.96875 L 160.660156 183.96875 C 160.765625 182.195312 160.808594 180.453125 160.96875 178.664062 L 162.183594 164.09375 L 164.277344 164.09375 L 161.476562 194.621094 L 159.839844 194.621094 L 156.925781 164.09375 Z M 159.066406 164.09375 "/>
<path style=" stroke:none;fill-rule:nonzero;fill:rgb(0%,28.627451%,53.72549%);fill-opacity:1;" d="M 171.113281 164.09375 L 171.113281 169.757812 L 169.09375 169.757812 L 169.09375 176.398438 L 170.871094 176.398438 L 170.871094 182.078125 L 169.09375 182.078125 L 169.09375 188.957031 L 171.136719 188.957031 L 171.136719 194.621094 L 167.097656 194.621094 L 167.097656 164.09375 Z M 171.113281 164.09375 "/>
<path style=" stroke:none;fill-rule:nonzero;fill:rgb(0%,28.627451%,53.72549%);fill-opacity:1;" d="M 176.347656 177.207031 L 176.695312 177.253906 C 177.605469 177.253906 177.964844 175.390625 177.964844 172.882812 C 177.964844 170.6875 177.617188 168.914062 176.617188 169.066406 L 176.347656 169.066406 Z M 174.351562 194.621094 L 174.351562 164.09375 L 176.363281 164.09375 C 177.632812 164.09375 179.90625 164.5 179.90625 172.835938 C 179.90625 176.203125 179.464844 179.070312 178.472656 180.738281 L 180.230469 194.621094 L 178.128906 194.621094 L 176.371094 180.527344 L 176.347656 180.527344 L 176.347656 194.621094 Z M 174.351562 194.621094 "/>
<path style=" stroke:none;fill-rule:nonzero;fill:rgb(0%,28.627451%,53.72549%);fill-opacity:1;" d="M 184.5 164.09375 L 185.542969 172.386719 L 185.6875 173.886719 L 185.71875 173.886719 L 185.945312 171.621094 L 186.839844 164.09375 L 189.074219 164.09375 L 186.71875 180.003906 L 186.71875 194.621094 L 184.722656 194.621094 L 184.722656 180.003906 L 182.300781 164.09375 Z M 184.5 164.09375 "/>
<path style=" stroke:none;fill-rule:nonzero;fill:rgb(0%,28.627451%,53.72549%);fill-opacity:1;" d="M 193.28125 164.09375 L 194.132812 178.664062 C 194.257812 180.8125 194.28125 183.007812 194.351562 185.15625 L 194.378906 185.15625 C 194.472656 183.007812 194.519531 180.8125 194.671875 178.664062 L 195.671875 164.09375 L 197.253906 164.09375 L 198.539062 185.15625 L 198.5625 185.15625 C 198.632812 183.007812 198.648438 180.890625 198.765625 178.757812 L 199.554688 164.09375 L 201.648438 164.09375 L 199.554688 194.621094 L 197.828125 194.621094 L 196.800781 178.5 C 196.730469 176.652344 196.613281 174.789062 196.515625 172.925781 L 196.492188 172.925781 C 196.382812 174.789062 196.320312 176.652344 196.167969 178.5 L 195.019531 194.621094 L 193.28125 194.621094 L 191.242188 164.09375 Z M 193.28125 164.09375 "/>
<path style=" stroke:none;fill-rule:nonzero;fill:rgb(0%,28.627451%,53.72549%);fill-opacity:1;" d="M 206.464844 164.09375 L 206.464844 176.035156 L 208.484375 176.035156 L 208.484375 164.09375 L 210.480469 164.09375 L 210.480469 194.621094 L 208.484375 194.621094 L 208.484375 181.699219 L 206.464844 181.699219 L 206.464844 194.621094 L 204.46875 194.621094 L 204.46875 164.09375 Z M 206.464844 164.09375 "/>
<path style=" stroke:none;fill-rule:nonzero;fill:rgb(0%,28.627451%,53.72549%);fill-opacity:1;" d="M 217.917969 164.09375 L 217.917969 169.757812 L 215.898438 169.757812 L 215.898438 176.398438 L 217.679688 176.398438 L 217.679688 182.078125 L 215.898438 182.078125 L 215.898438 188.957031 L 217.949219 188.957031 L 217.949219 194.621094 L 213.90625 194.621094 L 213.90625 164.09375 Z M 217.917969 164.09375 "/>
<path style=" stroke:none;fill-rule:nonzero;fill:rgb(0%,28.627451%,53.72549%);fill-opacity:1;" d="M 223.152344 177.207031 L 223.5 177.253906 C 224.414062 177.253906 224.773438 175.390625 224.773438 172.882812 C 224.773438 170.6875 224.425781 168.914062 223.421875 169.066406 L 223.152344 169.066406 Z M 221.160156 194.621094 L 221.160156 164.09375 L 223.167969 164.09375 C 224.4375 164.09375 226.714844 164.5 226.714844 172.835938 C 226.714844 176.203125 226.269531 179.070312 225.28125 180.738281 L 227.035156 194.621094 L 224.933594 194.621094 L 223.183594 180.527344 L 223.152344 180.527344 L 223.152344 194.621094 Z M 221.160156 194.621094 "/>
<path style=" stroke:none;fill-rule:nonzero;fill:rgb(0%,28.627451%,53.72549%);fill-opacity:1;" d="M 234.277344 164.09375 L 234.277344 169.757812 L 232.253906 169.757812 L 232.253906 176.398438 L 234.039062 176.398438 L 234.039062 182.078125 L 232.253906 182.078125 L 232.253906 188.957031 L 234.304688 188.957031 L 234.304688 194.621094 L 230.261719 194.621094 L 230.261719 164.09375 Z M 234.277344 164.09375 "/>
</g>
</svg>
